<?xml version="1.0" standalone="no"?><!DOCTYPE svg PUBLIC "-//W3C//DTD SVG 1.1//EN" "http://www.w3.org/Graphics/SVG/1.1/DTD/svg11.dtd"><svg t="1727418052209" class="icon" viewBox="0 0 1024 1024" version="1.1" xmlns="http://www.w3.org/2000/svg" p-id="16871" xmlns:xlink="http://www.w3.org/1999/xlink" width="200" height="200"><path d="M791.2448 804.9152H232.7552c-57.1392 0-103.68-45.056-103.68-100.4032V315.7504c0-55.3472 46.5408-100.4032 103.68-100.4032h368.2816a94.8224 94.8224 0 0 1 55.04 17.3568l200.3968 141.568a90.112 90.112 0 0 1 38.4512 73.3184v256.9216c0 55.3472-46.5408 100.4032-103.68 100.4032zM232.7552 279.3472c-21.8624 0-39.68 16.3328-39.68 36.4032v388.7616c0 20.0704 17.8176 36.4032 39.68 36.4032h558.4896c21.8624 0 39.68-16.3328 39.68-36.4032V447.5904a26.0608 26.0608 0 0 0-11.3664-21.0432l-200.448-141.568a31.3856 31.3856 0 0 0-18.0736-5.632z" p-id="16872"></path><path d="M332.8 588.8a32 32 0 0 1-32-32V453.3248a32 32 0 0 1 64 0v103.3728A32 32 0 0 1 332.8 588.8zM450.56 615.424a32 32 0 0 1-32-31.744V480.1024a32 32 0 1 1 64 0V583.68a32 32 0 0 1-32 31.744z" fill="#B5B5B6" p-id="16873"></path></svg>