<?xml version="1.0" standalone="no"?><!DOCTYPE svg PUBLIC "-//W3C//DTD SVG 1.1//EN" "http://www.w3.org/Graphics/SVG/1.1/DTD/svg11.dtd"><svg t="1727418010363" class="icon" viewBox="0 0 1024 1024" version="1.1" xmlns="http://www.w3.org/2000/svg" p-id="14801" xmlns:xlink="http://www.w3.org/1999/xlink" width="200" height="200"><path d="M188 158c-16.569 0-30 13.431-30 30v274c0 16.569 13.431 30 30 30h648c16.569 0 30-13.431 30-30V188c0-16.569-13.431-30-30-30H188z m0-60h648c49.706 0 90 40.294 90 90v274c0 49.706-40.294 90-90 90H188c-49.706 0-90-40.294-90-90V188c0-49.706 40.294-90 90-90zM865.806 666.336c0.783-8.356-0.817-16.598-4.05-21.6-2.937-4.547-7.379-6.863-16.854-6.732-16.831 0.233-41.778 9.21-74.358 29.048-14.152 8.617-32.61 4.13-41.226-10.02-8.617-14.152-4.13-32.61 10.02-41.227 40.95-24.935 75.57-37.392 104.735-37.795 29.887-0.413 53.787 12.046 68.078 34.162 22.641 35.037 17.123 93.984-13.98 110.67-6.05 3.245-137.342 83.624-161.34 98.17-2.32 1.407-4.617 2.798-6.893 4.175-45.368 27.458-82.216 49.34-110.722 65.619-41.124 23.485-59.433 32.866-71.575 34.016-8.367 0.792-20.516-1.182-43.858-6.175-19.677-4.21-46.984-10.655-82.007-19.352-69.689-17.304-170.188-43.588-301.556-78.864C107.112 816.91 98 805.029 98 791.457V613.604c0-16.569 13.431-30 30-30h426.848c28.964 0 52.716 7.545 69.9 22.384 16.242 14.025 25.071 33.305 26.307 54.127 1.067 17.98-3.653 36.32-12.888 50.972-10.993 17.442-27.9 29.095-47.951 29.095H409.964c-16.568 0-30-13.431-30-30 0-16.568 13.432-30 30-30h176.694c0.243-0.32 0.495-0.683 0.749-1.086 2.556-4.056 4.077-9.967 3.753-15.425-0.31-5.24-2.16-9.278-5.626-12.27-5.413-4.675-15.242-7.797-30.686-7.797H158v124.84c120.192 32.199 212.953 56.41 278.235 72.62 34.445 8.552 61.174 14.861 80.1 18.91 9.205 1.97 16.472 3.384 21.698 4.233 1.104 0.179 2.093 0.33 2.959 0.45 2.601-1.144 6.118-2.845 10.427-5.053 9.427-4.83 22.213-11.86 38.042-20.9 27.972-15.975 64.441-37.632 109.41-64.848 2.265-1.37 4.55-2.755 6.859-4.154a17378.639 17378.639 0 0 0 56.067-34.145c7.987-4.883 16.05-9.816 25.996-15.907 2.58-1.58 19.164-11.737 23.679-14.5 29.74-18.208 45.097-27.55 53.14-32.24 0.52-1.77 0.958-4.046 1.194-6.574z" fill="#565656" p-id="14802"></path><path d="M441.614 243.039c-11.62-11.811-11.464-30.806 0.347-42.425 11.811-11.62 30.806-11.464 42.425 0.347l43.286 44c11.62 11.811 11.464 30.806-0.347 42.425-11.812 11.62-30.806 11.464-42.425-0.347l-43.286-44z" fill="#565656" p-id="14803"></path><path d="M585.386 243.039c11.62-11.811 11.464-30.806-0.347-42.425-11.811-11.62-30.806-11.464-42.425 0.347l-43.286 44c-11.62 11.811-11.464 30.806 0.347 42.425 11.812 11.62 30.806 11.464 42.425-0.347l43.286-44z" fill="#565656" p-id="14804"></path><path d="M441 327.5c-16.569 0-30-13.431-30-30 0-16.569 13.431-30 30-30h144c16.569 0 30 13.431 30 30 0 16.569-13.431 30-30 30H441zM441 408.5c-16.569 0-30-13.431-30-30 0-16.569 13.431-30 30-30h144c16.569 0 30 13.431 30 30 0 16.569-13.431 30-30 30H441z" fill="#565656" p-id="14805"></path><path d="M483 297.765c0.058-16.568 13.536-29.953 30.104-29.896 16.568 0.058 29.953 13.536 29.896 30.104l-0.5 144.262c-0.058 16.568-13.536 29.953-30.104 29.896-16.568-0.058-29.953-13.536-29.896-30.104l0.5-144.262z" fill="#565656" p-id="14806"></path></svg>