<?xml version="1.0" standalone="no"?><!DOCTYPE svg PUBLIC "-//W3C//DTD SVG 1.1//EN" "http://www.w3.org/Graphics/SVG/1.1/DTD/svg11.dtd"><svg t="1727422259791" class="icon" viewBox="0 0 1024 1024" version="1.1" xmlns="http://www.w3.org/2000/svg" p-id="21937" xmlns:xlink="http://www.w3.org/1999/xlink" width="200" height="200"><path d="M896 330.24h-0.16896L464.43008 104.50944A40.96 40.96 0 0 0 404.48 140.52864L403.21024 330.24H179.2a40.96 40.96 0 0 0-40.96 40.96v112.64h-10.24a40.96 40.96 0 0 0-40.96 40.96v204.8a40.96 40.96 0 0 0 40.96 40.96h10.24v112.64a40.96 40.96 0 0 0 40.96 40.96h716.8a40.96 40.96 0 0 0 40.96-40.96v-512a40.96 40.96 0 0 0-40.96-40.96zM485.94944 208.22528L719.13472 330.24H485.13536l0.81408-122.01472zM168.96 688.64v-122.88h327.68v122.88H168.96z m686.08 153.6H220.16v-71.68h317.44a40.96 40.96 0 0 0 40.96-40.96v-204.8a40.96 40.96 0 0 0-40.96-40.96H220.16v-71.68h634.88v430.08z" p-id="21938"></path></svg>